<svg xmlns="http://www.w3.org/2000/svg" viewBox="0 0 62.36 62.36"><defs><style>.a{fill:#121415;}</style></defs><title>icons_</title><path class="a" d="M56.38,15.43H6a3.15,3.15,0,0,1,0-6.3h50.4a3.15,3.15,0,0,1,0,6.3Zm3.14,15.76A3.16,3.16,0,0,0,58.6,29,3.12,3.12,0,0,0,56.37,28H6a3.15,3.15,0,0,0,0,6.3h50.4a3.16,3.16,0,0,0,2.23-.92,3.07,3.07,0,0,0,.91-2.22Zm0,18.9a3.19,3.19,0,0,0-.92-2.24,3.11,3.11,0,0,0-2.23-.92H6a3.15,3.15,0,0,0,0,6.3h50.4a3.21,3.21,0,0,0,2.23-.92,3.07,3.07,0,0,0,.91-2.22Z"/></svg>