<svg xmlns="http://www.w3.org/2000/svg" viewBox="0 0 62.36 62.36">
  <title>icons</title>
  <path d="M58.89,19.32,42.9,3.46a2.21,2.21,0,0,0-1.54-.62H7.93A5.23,5.23,0,0,0,2.84,8.19v46a5.24,5.24,0,0,0,5.09,5.35H54.44a5.24,5.24,0,0,0,5.09-5.35V20.88A2.28,2.28,0,0,0,58.89,19.32ZM14.47,7.2H31.91v8.72H14.47ZM45,55.17H14.47V31.91H45Zm10.18-1c0,.52-.34,1-.73,1H49.35V29.73a2.17,2.17,0,0,0-2.18-2.18H12.29a2.17,2.17,0,0,0-2.18,2.18V55.17H7.93c-.4,0-.73-.47-.73-1v-46c0-.53.33-1,.73-1h2.18V18.1a2.18,2.18,0,0,0,2.18,2.18h21.8a2.19,2.19,0,0,0,2.18-2.18V7.2h4.19L55.17,21.73Z" style="fill: #020608"/>
</svg>
