<svg xmlns="http://www.w3.org/2000/svg" viewBox="0 0 62.36 62.36">
  <title>icons</title>
  <path d="M24.55,27.7H6a3.18,3.18,0,0,1-3.15-3.15V6A3.18,3.18,0,0,1,6,2.83H24.55A3.18,3.18,0,0,1,27.7,6V24.55a3.18,3.18,0,0,1-3.15,3.15ZM9.13,21.4H21.4V9.13H9.13Zm47.25,6.3H37.82a3.16,3.16,0,0,1-3.15-3.15V6a3.16,3.16,0,0,1,3.15-3.15H56.38a3.19,3.19,0,0,1,2.23.93A3.14,3.14,0,0,1,59.53,6V24.55a3.14,3.14,0,0,1-.92,2.22A3.19,3.19,0,0,1,56.38,27.7ZM41,21.4H53.23V9.13H41ZM24.55,59.53H6a3.14,3.14,0,0,1-2.22-.92,3.19,3.19,0,0,1-.93-2.23V37.82A3.16,3.16,0,0,1,6,34.67H24.55a3.16,3.16,0,0,1,3.15,3.15V56.38a3.19,3.19,0,0,1-.93,2.23A3.14,3.14,0,0,1,24.55,59.53ZM9.13,53.23H21.4V41H9.13Zm47.25,6.3H37.82a3.15,3.15,0,0,1-2.23-.92,3.18,3.18,0,0,1-.92-2.23V37.82a3.14,3.14,0,0,1,3.15-3.15H56.38a3.18,3.18,0,0,1,2.23.92,3.15,3.15,0,0,1,.92,2.23V56.38a3.14,3.14,0,0,1-3.15,3.15ZM41,53.23H53.23V41H41Z" style="fill: #020608"/>
</svg>
