<svg xmlns="http://www.w3.org/2000/svg" viewBox="0 0 62.36 62.36"><defs><style>.a{fill:#121415;}</style></defs><title>icons_</title><path class="a" d="M59.53,24.21v.08a3.19,3.19,0,0,1-.92,2.15,3.13,3.13,0,0,1-2.22.91H6a3.16,3.16,0,0,1-2.23-.91,3.19,3.19,0,0,1-.92-2.15v-.08A3.14,3.14,0,0,1,6,21.14h50.4a3.14,3.14,0,0,1,3.14,3.07Z"/><path class="a" d="M59.53,38v.08a3.19,3.19,0,0,1-.92,2.15,3.13,3.13,0,0,1-2.22.91H6a3.16,3.16,0,0,1-2.23-.91,3.19,3.19,0,0,1-.92-2.15V38A3.14,3.14,0,0,1,6,34.92h50.4A3.14,3.14,0,0,1,59.53,38Z"/><path class="a" d="M59.53,51.78v.08A3.19,3.19,0,0,1,58.61,54a3.13,3.13,0,0,1-2.22.91H6A3.16,3.16,0,0,1,3.76,54a3.19,3.19,0,0,1-.92-2.15v-.08A3.14,3.14,0,0,1,6,48.71h50.4a3.14,3.14,0,0,1,3.14,3.07Z"/><path class="a" d="M59.53,10.42v.08a3.19,3.19,0,0,1-.92,2.15,3.13,3.13,0,0,1-2.22.91H6a3.16,3.16,0,0,1-2.23-.91,3.19,3.19,0,0,1-.92-2.15v-.08A3.14,3.14,0,0,1,6,7.35h50.4a3.14,3.14,0,0,1,3.14,3.07Z"/></svg>