<svg xmlns="http://www.w3.org/2000/svg" viewBox="0 0 62.36 62.36"><defs><style>.a{fill:#121415;}</style></defs><title>icons_</title><path class="a" d="M52.18,12.91h-42a3.15,3.15,0,0,0,0,6.3h1.05V56.38a3.19,3.19,0,0,0,.93,2.23,3.14,3.14,0,0,0,2.22.92H48a3.14,3.14,0,0,0,3.15-3.15V19.21h1a3.15,3.15,0,0,0,0-6.3ZM44.83,53.23H17.53v-34h27.3ZM19.21,6a3.11,3.11,0,0,1,.93-2.22,3.15,3.15,0,0,1,2.22-.93H40a3.15,3.15,0,1,1,0,6.3H22.36A3.16,3.16,0,0,1,19.21,6Zm2.73,38.64V27.82a3.15,3.15,0,1,1,6.3,0v16.8a3.15,3.15,0,0,1-6.3,0Zm12.18,0V27.82a3.15,3.15,0,1,1,6.3,0v16.8a3.15,3.15,0,0,1-6.3,0Z"/></svg>