<svg xmlns="http://www.w3.org/2000/svg" viewBox="0 0 62.36 62.36"><defs><style>.a{fill:#010101;}</style></defs><title>icons_</title><path class="a" d="M39.1,16.94H12.26a3.14,3.14,0,0,0-3.14,3.14v20h0a3.15,3.15,0,0,1-6.29,0v-20a9.46,9.46,0,0,1,9.43-9.43H39.1L36.67,8.22a3.14,3.14,0,0,1,4.44-4.44l7.8,7.79h0a3.15,3.15,0,0,1,0,4.45l-7.79,7.79a3.14,3.14,0,1,1-4.44-4.44ZM56.38,19a3.14,3.14,0,0,0-3.14,3.15v20h0a3.14,3.14,0,0,1-3.14,3.15h-27l2.43-2.43h0a3.17,3.17,0,0,0,.72-3,3.12,3.12,0,0,0-2.17-2.17,3.17,3.17,0,0,0-3,.72l-7.79,7.8a3.14,3.14,0,0,0,0,4.44l7.8,7.79h0a3.13,3.13,0,0,0,4.45,0,3.14,3.14,0,0,0,0-4.44l-2.43-2.43h27a9.46,9.46,0,0,0,9.43-9.43v-20A3.14,3.14,0,0,0,56.39,19Z"/></svg>