<svg xmlns="http://www.w3.org/2000/svg" viewBox="0 0 62.36 62.36">
  <title>icons</title>
  <path d="M59.53,15.29a3.14,3.14,0,0,1-.92,2.22,3.19,3.19,0,0,1-2.23.93h-1.3V56.38a3.15,3.15,0,1,1-6.3,0V18.44h-1.3a3.15,3.15,0,1,1,0-6.3h1.3V6a3.15,3.15,0,0,1,6.3,0v6.16h1.3a3.18,3.18,0,0,1,2.23.92,3.15,3.15,0,0,1,.92,2.23ZM35.63,43.93h-1.3V6A3.15,3.15,0,0,0,28,6v38h-1.3a3.15,3.15,0,0,0,0,6.3H28v6.15a3.15,3.15,0,1,0,6.3,0V50.23h1.3a3.15,3.15,0,1,0,0-6.3Zm-20.74-18h-1.3V6a3.15,3.15,0,0,0-6.3,0v20H6a3.15,3.15,0,0,0,0,6.3H7.29V56.38a3.15,3.15,0,0,0,6.3,0V32.23h1.3a3.15,3.15,0,0,0,0-6.3Z" style="fill: #020608"/>
</svg>
