<svg xmlns="http://www.w3.org/2000/svg" viewBox="0 0 62.36 62.36"><defs><style>.a{fill:#010101;}</style></defs><title>icons_</title><path class="a" d="M23.42,42.06a3.23,3.23,0,0,1-2.22-.92,3.17,3.17,0,0,1-.91-2.23,3.13,3.13,0,0,1,.91-2.22L36.65,21.23a3.15,3.15,0,0,1,5.18,1.46,3.13,3.13,0,0,1-.73,3L25.65,41.14a3.15,3.15,0,0,1-2.23.92Zm-.88,16.55,13-13h0a3.15,3.15,0,0,0-4.39-4.45L20.38,51.93,10.41,42,21.18,31.19A3.15,3.15,0,0,0,19,25.73a3.17,3.17,0,0,0-2.24,1l-13,13.06a3.14,3.14,0,0,0,0,4.46L18.09,58.61a3.15,3.15,0,0,0,4.45,0Zm23.1-23.1,13-13h0a3.08,3.08,0,0,0,.93-2.22,3.12,3.12,0,0,0-.93-2.23L44.21,3.76a3.13,3.13,0,0,0-4.45,0l-13,13A3.16,3.16,0,0,0,25.54,19a3.1,3.1,0,0,0,.9,2.43,3.15,3.15,0,0,0,4.71-.26L41.92,10.44l9.91,9.91L41.12,31.18a3.15,3.15,0,0,0,4.45,4.46Z"/></svg>