<svg xmlns="http://www.w3.org/2000/svg" viewBox="0 0 62.36 62.36">
  <title>icons</title>
  <path d="M2.83,12A3.16,3.16,0,0,1,6,8.82h50.4a3.15,3.15,0,0,1,0,6.3H6a3.14,3.14,0,0,1-2.22-.92A3.17,3.17,0,0,1,2.83,12ZM56.38,27.72H6A3.15,3.15,0,0,0,6,34h50.4a3.15,3.15,0,1,0,0-6.3ZM30.78,46.61H6a3.15,3.15,0,0,0,0,6.3h24.8a3.15,3.15,0,0,0,0-6.3Zm25.2,0H52.83V43.46a3.15,3.15,0,0,0-6.3,0v3.15H43.38a3.15,3.15,0,1,0,0,6.3h3.15v3.15a3.15,3.15,0,1,0,6.3,0V52.91H56a3.15,3.15,0,0,0,0-6.3Z" style="fill: #020608"/>
</svg>
