<svg xmlns="http://www.w3.org/2000/svg" viewBox="0 0 62.36 62.36"><defs><style>.a{fill:#010101;}</style></defs><title>icons_</title><path class="a" d="M52.2,23.41a4.05,4.05,0,0,0-.67-1L33,3.76h0a3.39,3.39,0,0,0-1-.69,3.09,3.09,0,0,0-1.16-.24H13.16A3.18,3.18,0,0,0,10,5.92V56.37a3.18,3.18,0,0,0,3.15,3.16h36a3.18,3.18,0,0,0,3.16-3.16V24.55a3.65,3.65,0,0,0-.15-1.14ZM33.85,13.53l7.84,7.87H33.75ZM46,53.22H16.32V9.08h11.2V24.53h0a3.27,3.27,0,0,0,.93,2.25,3.15,3.15,0,0,0,2.23.92H46.15ZM31.18,31a3.15,3.15,0,0,1,2.23.92,3.18,3.18,0,0,1,.92,2.23v3.16h3.16a3.15,3.15,0,1,1,0,6.3H34.33v3.16a3.15,3.15,0,1,1-6.3,0V43.57H24.87a3.15,3.15,0,1,1,0-6.3H28V34.11A3.18,3.18,0,0,1,29,31.88,3.15,3.15,0,0,1,31.18,31Z"/></svg>