<svg xmlns="http://www.w3.org/2000/svg" viewBox="0 0 62.36 62.36"><defs><style>.a{fill:#121415;}</style></defs><title>icons_</title><path class="a" d="M58.61,5.5a3.14,3.14,0,0,0-2.22-.92H6A3.14,3.14,0,0,0,2.84,7.73V26.29A3.14,3.14,0,0,0,6,29.44h50.4a3.14,3.14,0,0,0,3.14-3.15V7.73A3.16,3.16,0,0,0,58.61,5.5ZM53.24,23.14H9.14V10.88h44.1Z"/><path class="a" d="M58.61,33.84a3.14,3.14,0,0,0-2.22-.92H6a3.14,3.14,0,0,0-3.15,3.15V54.63A3.14,3.14,0,0,0,6,57.78h50.4a3.14,3.14,0,0,0,3.14-3.15V36.07A3.16,3.16,0,0,0,58.61,33.84ZM53.24,51.48H9.14V39.22h44.1Z"/></svg>