<svg xmlns="http://www.w3.org/2000/svg" viewBox="0 0 62.36 62.36"><defs><style>.a{fill:#121415;}</style></defs><title>icons_</title><path class="a" d="M59.53,51.93a3.14,3.14,0,0,1-.92,2.22,3.19,3.19,0,0,1-2.23.93H31.18a3.15,3.15,0,1,1,0-6.3h25.2a3.18,3.18,0,0,1,2.23.92,3.15,3.15,0,0,1,.92,2.23ZM56.38,28h-4.2v-1.3a3.15,3.15,0,1,0-6.3,0v8.9a3.15,3.15,0,0,0,6.3,0v-1.3h4.2a3.15,3.15,0,0,0,0-6.3ZM6,34.33H37.75a3.15,3.15,0,0,0,0-6.3H6a3.15,3.15,0,0,0,0,6.3ZM6,13.59h14.7a3.15,3.15,0,1,0,0-6.3H6a3.15,3.15,0,0,0,0,6.3ZM31.18,18a3.16,3.16,0,0,0,3.15-3.15v-1.3H56.38a3.15,3.15,0,1,0,0-6.3h-22V6a3.15,3.15,0,0,0-6.29,0v8.91a3.17,3.17,0,0,0,.89,2.2,3.21,3.21,0,0,0,2.17.95ZM20.68,44.33a3.16,3.16,0,0,0-3.15,3.15v1.3H6a3.15,3.15,0,0,0,0,6.3H17.53v1.3a3.15,3.15,0,1,0,6.3,0v-8.9a3.14,3.14,0,0,0-3.15-3.15Z"/></svg>