<svg xmlns="http://www.w3.org/2000/svg" viewBox="0 0 62.36 62.36"><defs><style>.a{fill:#010101;}</style></defs><title>icons_</title><path class="a" d="M34.33,18.58V33.81a3.15,3.15,0,0,1-6.3,0V18.58a3.15,3.15,0,1,1,6.3,0Zm-.23,24a4.63,4.63,0,0,0-.29-.54,3.42,3.42,0,0,0-.89-.89l-.54-.29-.59-.17h0a3.13,3.13,0,0,0-1.22,0l-.59.17-.54.29h0a3.24,3.24,0,0,0-.88.89,2.31,2.31,0,0,0-.28.54,2,2,0,0,0-.19,1.2,3.5,3.5,0,0,0,.23,1.2,3.27,3.27,0,0,0,1.73,1.72,3.19,3.19,0,0,0,2.39,0,3,3,0,0,0,1-.7,3.23,3.23,0,0,0,.69-1,3.26,3.26,0,0,0,.17-1.2,3.11,3.11,0,0,0,0-.61,4.24,4.24,0,0,0-.23-.59Zm25.43-28.2V48A11.57,11.57,0,0,1,48,59.53H14.38A11.57,11.57,0,0,1,2.83,48V14.38A11.57,11.57,0,0,1,14.38,2.83H48A11.57,11.57,0,0,1,59.53,14.38Zm-6.3,0A5.26,5.26,0,0,0,48,9.13H14.38a5.26,5.26,0,0,0-5.25,5.25V48a5.26,5.26,0,0,0,5.25,5.25H48A5.26,5.26,0,0,0,53.23,48Z"/></svg>