<svg xmlns="http://www.w3.org/2000/svg" viewBox="0 0 62.36 62.36"><defs><style>.a{fill:#010101;}</style></defs><title>icons_</title><path class="a" d="M31.18,55.85a3.12,3.12,0,0,1-2.1-.9L7.58,33.78a15.84,15.84,0,0,1,0-22.62,16.25,16.25,0,0,1,22.76,0l.84.84.84-.84a16.26,16.26,0,0,1,22.77,0,15.86,15.86,0,0,1,0,22.62L33.39,55a3.14,3.14,0,0,1-2.21.9ZM19,12.8a9.77,9.77,0,0,0-7,2.86,9.53,9.53,0,0,0,0,13.65l19.17,18.9,19.17-18.9a9.53,9.53,0,0,0,0-13.65,9.87,9.87,0,0,0-13.9,0l-3.06,2.91a3.1,3.1,0,0,1-4.31,0l-3.17-2.91A9.81,9.81,0,0,0,19,12.8Z"/></svg>