<svg xmlns="http://www.w3.org/2000/svg" viewBox="0 0 62.36 62.36"><defs><style>.a{fill:#121415;}</style></defs><title>icons_</title><path class="a" d="M52.18,2.83h-42a7.37,7.37,0,0,0-7.35,7.35v42a7.37,7.37,0,0,0,7.35,7.35h42a7.37,7.37,0,0,0,7.35-7.35v-42a7.37,7.37,0,0,0-7.35-7.35Zm-42,6.3h42a1,1,0,0,1,.74.31,1.05,1.05,0,0,1,.31.74V44.62L41.53,24.36A3.15,3.15,0,0,0,37.72,23a3.13,3.13,0,0,0-1.65,1.39L27.19,39.75l-4.83-8.4A3.13,3.13,0,0,0,20.71,30a3.2,3.2,0,0,0-2.16,0,3.17,3.17,0,0,0-1.65,1.39L9.13,44.85V10.18a1,1,0,0,1,1-1Zm40.74,44.1H11.57l8.06-14,4.83,8.4a3.13,3.13,0,0,0,1.65,1.39,3.15,3.15,0,0,0,3.81-1.39L38.8,32.27Z"/></svg>