<svg xmlns="http://www.w3.org/2000/svg" viewBox="0 0 62.36 62.36">
  <title>icons</title>
  <path d="M57,5.42a8.78,8.78,0,0,0-12.43,0L21.71,28.2A3.25,3.25,0,0,0,20.83,30l-1.18,9.15a3.17,3.17,0,0,0,3.13,3.55h.4l9.16-1.18a3.07,3.07,0,0,0,1.82-.88L57,17.85A8.78,8.78,0,0,0,57,5.42Zm-26.48,30-4,.52.56-4L41.91,17l3.53,3.53Zm22-22L49.85,16l-3.53-3.53L49,9.87a2.51,2.51,0,0,1,3.52,0,2.46,2.46,0,0,1,0,3.52Zm2.84,19.89v23.1a3.14,3.14,0,0,1-.92,2.22,3.17,3.17,0,0,1-2.23.93H6a3.11,3.11,0,0,1-2.22-.93,3.15,3.15,0,0,1-.93-2.22V10.18A3.19,3.19,0,0,1,3.76,8,3.14,3.14,0,0,1,6,7h23.1a3.15,3.15,0,1,1,0,6.3H9.13v39.9H49V33.28a3.15,3.15,0,0,1,6.3,0Z" style="fill: #020608"/>
</svg>
