<svg xmlns="http://www.w3.org/2000/svg" viewBox="0 0 62.36 62.36"><defs><style>.a{fill:#010101;}</style></defs><title>icons_</title><path class="a" d="M34.33,28.56V43.78a3.15,3.15,0,0,1-6.3,0V28.56a3.15,3.15,0,1,1,6.3,0Zm-.25-11.18a2.73,2.73,0,0,0-.27-.54c-.13-.17-.26-.33-.4-.48a3.27,3.27,0,0,0-4.46,0,4.54,4.54,0,0,0-.39.48,2.31,2.31,0,0,0-.28.54,3.12,3.12,0,0,0-.19.59,3.11,3.11,0,0,0,0,.61,3.5,3.5,0,0,0,.23,1.2,3.26,3.26,0,0,0,1.15,1.4,3.16,3.16,0,0,0,1.71.55,3.13,3.13,0,0,0,3.15-3.15,3.11,3.11,0,0,0,0-.61,3.37,3.37,0,0,0-.25-.59Z"/><path class="a" d="M51.22,11.15a28.32,28.32,0,1,0,8.31,20A28.38,28.38,0,0,0,51.22,11.15ZM46.77,46.76a22,22,0,1,1,6.46-15.58A22.07,22.07,0,0,1,46.77,46.76Z"/></svg>