<svg xmlns="http://www.w3.org/2000/svg" viewBox="0 0 62.36 62.36"><defs><style>.a{fill:#010101;}</style></defs><title>icons_</title><path class="a" d="M56.44,55.35H6a3.16,3.16,0,0,1-1.59-.43,3.13,3.13,0,0,1-1.17-1.17,3.25,3.25,0,0,1,0-3.17l25.22-42a3.15,3.15,0,0,1,5.42,0l25.22,42a3.2,3.2,0,0,1,0,3.17,3.16,3.16,0,0,1-2.67,1.6Zm-44.86-6.3H50.87L31.22,16.31Z"/><path class="a" d="M34.33,33.34V44.77a2.34,2.34,0,0,1-1.57,2,4.09,4.09,0,0,1-3.15,0,2.33,2.33,0,0,1-1.58-2V33.34a2.33,2.33,0,0,1,1.58-2.05,4,4,0,0,1,3.15,0A2.34,2.34,0,0,1,34.33,33.34Zm-.21-8.72a2.81,2.81,0,0,0-.27-.55,4.63,4.63,0,0,0-.4-.48,3.25,3.25,0,0,0-4.45,0,4.63,4.63,0,0,0-.4.48,2.81,2.81,0,0,0-.27.55,2.39,2.39,0,0,0-.19.59,3.11,3.11,0,0,0,0,.61A3.23,3.23,0,0,0,28.37,27a3.2,3.2,0,0,0,2.86,2,3.24,3.24,0,0,0,1.19-.24A3.15,3.15,0,0,0,34.14,27a3,3,0,0,0,.23-1.19,2.08,2.08,0,0,0,0-.61,2.38,2.38,0,0,0-.25-.59Z"/></svg>